HIERARCHY
ROOT Hips
{
	OFFSET 0.000000 0.000000 0.000000
	CHANNELS 6 Xposition Yposition Zposition Zrotation Yrotation Xrotation 
	JOINT LeftUpLeg_virtual
	{
		OFFSET 0.000000 0.000000 0.000000
		CHANNELS 3 Zrotation Yrotation Xrotation
		JOINT LeftUpLeg
		{
			OFFSET 8.479694 -4.795517 -0.379053
			CHANNELS 3 Zrotation Yrotation Xrotation
			JOINT LeftLeg
			{
				OFFSET 0.485052 -32.551468 0.112863
				CHANNELS 3 Zrotation Yrotation Xrotation
				JOINT LeftFoot
				{
					OFFSET 0.438033 -32.635670 -3.012641
					CHANNELS 3 Zrotation Yrotation Xrotation
					JOINT LeftToeBase
					{
						OFFSET 0.970169 -13.225353 11.864223
						CHANNELS 3 Zrotation Yrotation Xrotation
						End Site
						{
							OFFSET 0.000000 0.000000 0.000000
						}
					}
				}
			}
		}
	}
	JOINT RightUpLeg_virtual
	{
		OFFSET 0.000000 0.000000 0.000000
		CHANNELS 3 Zrotation Yrotation Xrotation
		JOINT RightUpLeg
		{
			OFFSET -8.479694 -4.795517 -0.379053
			CHANNELS 3 Zrotation Yrotation Xrotation
			JOINT RightLeg
			{
				OFFSET -0.484100 -32.551483 0.112903
				CHANNELS 3 Zrotation Yrotation Xrotation
				JOINT RightFoot
				{
					OFFSET -0.438985 -32.635651 -3.012681
					CHANNELS 3 Zrotation Yrotation Xrotation
					JOINT RightToeBase
					{
						OFFSET -0.970169 -13.225354 11.864223
						CHANNELS 3 Zrotation Yrotation Xrotation
						End Site
						{
							OFFSET 0.000000 0.000000 0.000000
						}
					}
				}
			}
		}
	}
	JOINT Spine_virtual
	{
		OFFSET 0.000000 0.000000 0.000000
		CHANNELS 3 Zrotation Yrotation Xrotation
		JOINT Spine
		{
			OFFSET 0.000000 7.722015 1.166203
			CHANNELS 3 Zrotation Yrotation Xrotation
			JOINT Spine1
			{
				OFFSET 0.000000 12.024086 0.248766
				CHANNELS 3 Zrotation Yrotation Xrotation
				JOINT Spine2
				{
					OFFSET -0.000000 11.503036 -0.491240
					CHANNELS 3 Zrotation Yrotation Xrotation
					JOINT Neck_virtual
					{
						OFFSET 0.000000 0.000000 0.000000
						CHANNELS 3 Zrotation Yrotation Xrotation
						JOINT Neck
						{
							OFFSET 0.000000 18.430687 -3.123054
							CHANNELS 3 Zrotation Yrotation Xrotation
							JOINT Head
							{
								OFFSET -0.000000 9.051071 1.034021
								CHANNELS 3 Zrotation Yrotation Xrotation
								End Site
								{
									OFFSET 0.000000 0.000000 0.000000
								}
							}
						}
					}
					JOINT LeftShoulder_virtual
					{
						OFFSET 0.000000 0.000000 0.000000
						CHANNELS 3 Zrotation Yrotation Xrotation
						JOINT LeftShoulder
						{
							OFFSET 6.197824 13.665230 -4.064723
							CHANNELS 3 Zrotation Yrotation Xrotation
							JOINT LeftArm
							{
								OFFSET 7.778132 -0.187073 -1.709282
								CHANNELS 3 Zrotation Yrotation Xrotation
								JOINT LeftForeArm
								{
									OFFSET 21.954697 0.000000 -2.041093
									CHANNELS 3 Zrotation Yrotation Xrotation
									JOINT LeftHand
									{
										OFFSET 22.992908 0.000000 -0.870901
										CHANNELS 3 Zrotation Yrotation Xrotation
										End Site
										{
											OFFSET 0.000000 0.000000 0.000000
										}
									}
								}
							}
						}
					}
					JOINT RightShoulder_virtual
					{
						OFFSET 0.000000 0.000000 0.000000
						CHANNELS 3 Zrotation Yrotation Xrotation
						JOINT RightShoulder
						{
							OFFSET -6.197824 13.665230 -4.064723
							CHANNELS 3 Zrotation Yrotation Xrotation
							JOINT RightArm
							{
								OFFSET -7.778132 -0.187073 -1.709282
								CHANNELS 3 Zrotation Yrotation Xrotation
								JOINT RightForeArm
								{
									OFFSET -21.954697 0.000000 -2.041093
									CHANNELS 3 Zrotation Yrotation Xrotation
									JOINT RightHand
									{
										OFFSET -22.992908 0.000000 -0.870901
										CHANNELS 3 Zrotation Yrotation Xrotation
										End Site
										{
											OFFSET 0.000000 0.000000 0.000000
										}
									}
								}
							}
						}
					}
				}
			}
		}
	}
}
MOTION
Frames: 4
Frame Time: 0.033333
11.680964 78.774284 46.992081 -179.977219 4.777902 -179.613526 -2.948206 -0.836522 10.385908 0.187460 -0.053537 -31.119442 10.959438 4.030218 30.648172 -2.537355 -3.322402 -9.949633 0.000000 0.000000 0.000000 0.104898 -0.559855 10.025434 0.215377 8.122673 -31.393332 1.577921 4.406917 36.425013 8.912121 4.996639 -12.381460 0.000000 0.000000 0.000000 3.280896 1.116744 -3.980218 -3.253730 -1.835065 -1.335728 -1.264756 -1.320210 11.559050 0.012607 -0.014878 0.076975 -1.699632 0.101229 13.078401 1.064356 -2.068761 -5.100101 0.000000 0.000000 0.000000 -0.582659 0.814537 10.107762 -13.897300 -10.625534 2.790146 -54.219739 -7.258945 17.197938 2.010820 -22.749161 5.524187 0.000000 0.000000 0.000000 -3.980437 2.267915 9.605307 25.186948 4.262704 7.327922 47.481307 6.954810 14.256384 -6.303233 23.301069 -3.821447 0.000000 0.000000 0.000000 
11.722658 78.778175 46.996231 179.964597 4.462953 -179.317765 -2.875945 -0.525183 10.638277 0.215316 0.296591 -30.677023 11.282441 4.663962 30.922705 -2.390260 -3.025542 -9.561061 0.000000 0.000000 0.000000 -0.089936 -0.379808 10.355235 -0.107287 9.574847 -31.059035 2.420617 5.406337 36.657700 9.518731 5.753671 -12.038982 0.000000 0.000000 0.000000 3.188691 1.189919 -4.199027 -3.299360 -1.933636 -1.462771 -1.306188 -1.384476 11.577373 0.084703 -0.072161 0.101692 -1.687046 0.208394 13.082584 1.176080 -2.175153 -5.147761 0.000000 0.000000 0.000000 -0.564787 0.722878 10.146795 -13.999946 -10.736204 2.780802 -54.225473 -7.338460 17.180895 2.045529 -22.802974 5.492842 0.000000 0.000000 0.000000 -4.000524 2.195513 9.584210 25.210250 4.138145 7.355502 47.402903 6.842465 14.086832 -6.424486 23.361757 -3.925540 0.000000 0.000000 0.000000 
11.736006 78.755554 46.983604 179.974897 4.567234 -179.312137 -2.820028 -0.423512 10.594364 0.219849 0.420495 -30.585024 11.277433 4.796873 30.814470 -2.511266 -3.010668 -9.494114 0.000000 0.000000 0.000000 -0.127300 -0.197436 10.391843 -0.101746 9.765935 -31.109859 2.501281 5.466766 36.631821 9.422327 5.725951 -12.044968 0.000000 0.000000 0.000000 3.137022 1.311453 -4.108224 -3.329661 -1.939933 -1.530837 -1.244172 -1.432191 11.500030 0.035803 -0.096528 0.139620 -1.657689 0.135743 13.085005 1.231071 -2.148891 -5.030319 0.000000 0.000000 0.000000 -0.551488 0.733437 10.101268 -14.084776 -10.740969 2.764904 -54.243788 -7.385884 17.105490 2.123071 -22.927895 5.350620 0.000000 0.000000 0.000000 -3.972275 2.142300 9.584269 25.107103 4.069563 7.312681 47.529094 6.669390 14.008190 -6.483437 23.565126 -4.054342 0.000000 0.000000 0.000000 
11.733088 78.721680 46.959946 179.965007 4.729401 -179.308530 -2.778490 -0.403111 10.550502 0.204594 0.574454 -30.475563 11.264852 4.979807 30.744935 -2.640953 -2.967969 -9.443321 0.000000 0.000000 0.000000 -0.157294 -0.117354 10.404012 -0.134152 9.938209 -31.167775 2.567986 5.509284 36.690779 9.329874 5.723903 -12.061720 0.000000 0.000000 0.000000 3.066152 1.350828 -3.981331 -3.303319 -1.927910 -1.580078 -1.243802 -1.459490 11.416280 -0.003083 -0.161110 0.119985 -1.637522 0.176573 12.992956 1.260314 -1.939943 -4.990803 0.000000 0.000000 0.000000 -0.484483 0.761984 10.020343 -14.135213 -10.660746 2.720815 -54.233406 -7.319378 16.995416 2.092800 -23.163560 5.381299 0.000000 0.000000 0.000000 -3.930779 2.162015 9.494622 25.060941 3.955940 7.273804 47.754063 6.499467 13.915728 -6.500440 23.798152 -4.026984 0.000000 0.000000 0.000000 
